<mxfile host="app.diagrams.net" modified="2023-12-02T09:37:38.371Z" agent="Mozilla/5.0 (iPhone; CPU iPhone OS 16_7 like Mac OS X) AppleWebKit/605.1.15 (KHTML, like Gecko) CriOS/119.0.6045.169 Mobile/15E148 Safari/604.1" version="22.1.5" etag="NoCSgdH9uoY0xO7YDO2f" type="github">
  <diagram name="Trang-1" id="GwRJlXM6HGWNC9VsOeqe">
    <mxGraphModel>
      <root>
        <mxCell id="0" />
        <mxCell id="1" parent="0" />
      </root>
    </mxGraphModel>
  </diagram>
</mxfile>
